<?xml version="1.0" encoding="UTF-8"?>
<svg width="256" height="256" viewBox="0 0 256 256" xmlns="http://www.w3.org/2000/svg">
  <path d="M128 0C57.308 0 0 57.308 0 128C0 198.692 57.308 256 128 256C198.692 256 256 198.692 256 128C256 57.308 198.692 0 128 0ZM128 64C146.778 64 162 79.222 162 98C162 116.778 146.778 132 128 132C109.222 132 94 116.778 94 98C94 79.222 109.222 64 128 64ZM128 220C96.5 220 69.1 203.3 54 178.8C54.3 153.4 103.7 139.5 128 139.5C152.3 139.5 201.7 153.4 202 178.8C186.9 203.3 159.5 220 128 220Z" fill="#FF4D4F"/>
</svg> 