<?xml version="1.0" encoding="UTF-8"?>
<svg width="256" height="154" viewBox="0 0 256 154" xmlns="http://www.w3.org/2000/svg">
  <path d="M128 0C93.867 0 72.533 17.067 64 51.2C76.8 34.133 91.733 27.733 108.8 32C117.689 34.288 124.1 40.786 131.2 48C142.507 59.5 155.755 73.067 192 73.067C226.133 73.067 247.467 56 256 21.867C243.2 38.933 228.267 45.333 211.2 41.067C202.311 38.779 195.9 32.281 188.8 25.067C177.493 13.567 164.245 0 128 0ZM64 73.067C29.867 73.067 8.533 90.133 0 124.267C12.8 107.2 27.733 100.8 44.8 105.067C53.689 107.355 60.1 113.853 67.2 121.067C78.507 132.567 91.755 146.133 128 146.133C162.133 146.133 183.467 129.067 192 94.933C179.2 112 164.267 118.4 147.2 114.133C138.311 111.845 131.9 105.347 124.8 98.133C113.493 86.633 100.245 73.067 64 73.067Z" fill="#38BDF8"/>
</svg> 